# xmcd
#
# Track frame offsets: 
#        150
#        9657
#        23603
#        40468
#        57319
#        72008
#        87226
#        100612
#        115731
#        127924
#        140008
#        151867
#        162819
#        175157
#
# Disc length: 2522 seconds
#
# Revision: 0
# Processed by: cddbd v1.5.2PL0 Copyright (c) Steve Scherf et al.
# Submitted via: ExactAudioCopy v0.95b4
#
DISCID=a809d80e
DTITLE=Mick Flavin - Try It You'll Like It
DYEAR=2004
DGENRE=Country
TTITLE0=Try It You'll Like It
TTITLE1=When The Grass Grows Over Me
TTITLE2=Connemara Home
TTITLE3=Lifelong Guarantee
TTITLE4=Forgiving You
TTITLE5=Good Time For Goodbye
TTITLE6=Maggie McCloud
TTITLE7=Memory Kicking In
TTITLE8=The Minor
TTITLE9=Forever With You
TTITLE10=Down The Isle
TTITLE11=When God Comes To Gather His Jewels
TTITLE12=Wish Old World
TTITLE13=World Made A Man Out Of Me
EXTD=
EXTT0=
EXTT1=
EXTT2=
EXTT3=
EXTT4=
EXTT5=
EXTT6=
EXTT7=
EXTT8=
EXTT9=
EXTT10=
EXTT11=
EXTT12=
EXTT13=
PLAYORDER=
